<?xml version="1.0" encoding="utf-8"?>
<!-- Generator: Adobe Illustrator 21.1.0, SVG Export Plug-In . SVG Version: 6.00 Build 0)  -->
<svg version="1.1" id="Ebene_1" xmlns="http://www.w3.org/2000/svg" xmlns:xlink="http://www.w3.org/1999/xlink" x="0px" y="0px"
	 viewBox="0 0 180 30" style="enable-background:new 0 0 180 30;" xml:space="preserve">
<style type="text/css">
	.st0{fill:#000333;}
</style>
<g>
	<path class="st0" d="M11.2,7.9c3.2,0,5.4,0.1,6.6,0.2c1.7,0.2,2.8,1.1,3.2,2.5c0.3,1,0.4,2.6,0.4,4.9s-0.1,4-0.4,5
		c-0.4,1.4-1.5,2.2-3.2,2.5c-1.2,0.2-3.4,0.2-6.6,0.2S5.7,23.1,4.5,23c-1.7-0.2-2.8-1.1-3.2-2.5c-0.3-1-0.4-2.7-0.4-5
		s0.1-3.9,0.4-4.9c0.4-1.4,1.5-2.2,3.2-2.5C5.7,8,7.9,7.9,11.2,7.9z M11.2,11.8c-2.4,0-3.9,0.1-4.3,0.2c-0.6,0.1-0.9,0.5-1.1,1
		s-0.3,1.5-0.3,3c0,0.9,0,1.6,0.1,2c0.2,0.8,0.7,1.2,1.6,1.3c0.7,0.1,2,0.1,3.9,0.1c1.8,0,3,0,3.6-0.1c0.6-0.1,1.1-0.2,1.3-0.4
		c0.3-0.2,0.4-0.5,0.5-0.9s0.1-1,0.1-1.9c0-1.1,0-1.9-0.1-2.4s-0.2-0.9-0.4-1.1c-0.2-0.3-0.6-0.5-1.2-0.6
		C14.6,11.8,13.3,11.8,11.2,11.8z"/>
	<path class="st0" d="M21.9,8.1h6.2l4.6,5.2l4.6-5.2h6.3l-7.2,7.4L44,23h-6.4l-4.9-5.4L27.9,23h-6.5l7.6-7.5L21.9,8.1z"/>
	<path class="st0" d="M44.9,8.1h4.8V23h-4.8V8.1z"/>
	<path class="st0" d="M51.8,23V8.1h10.8c1.9,0,3.2,0,3.7,0c0.6,0,1.2,0.1,1.8,0.2c1.5,0.3,2.5,1.1,2.9,2.5c0.2,0.5,0.3,1.1,0.3,1.7
		c0.1,0.6,0.1,1.5,0.1,2.7c0,1.3,0,2.3-0.1,3s-0.2,1.3-0.4,1.9c-0.4,1.3-1.4,2.1-2.7,2.4c-0.6,0.1-1.3,0.2-2.1,0.3
		c-0.7,0-1.9,0.1-3.6,0.1H51.8V23z M56.3,19.2h6.3c1.2,0,2,0,2.6-0.1c0.5-0.1,0.9-0.2,1.2-0.4c0.2-0.2,0.4-0.5,0.5-1
		s0.2-1.1,0.2-2.1c0-0.9,0-1.6-0.1-2.1s-0.2-0.8-0.5-1.1c-0.2-0.3-0.6-0.4-1.1-0.5s-1.4-0.1-2.8-0.1h-6.3
		C56.3,11.8,56.3,19.2,56.3,19.2z"/>
</g>
<g>
	<path class="st0" d="M94.7,18.4h2.4c0,1.7-0.6,2.9-1.8,3.6c-1.2,0.7-3.2,1-6.1,1c-2.4,0-4.2-0.1-5.5-0.3c-1.3-0.2-2.2-0.5-2.8-1
		c-1.5-1-2.2-3.1-2.2-6.1c0-2.1,0.3-3.7,0.9-4.8c0.6-1,1.4-1.7,2.5-2.1s3-0.5,5.6-0.5c2.5,0,4.3,0.1,5.4,0.4c1.1,0.3,2,0.8,2.6,1.5
		c0.5,0.6,0.9,1.4,1.1,2.2s0.3,2.1,0.3,3.8H81c0.1,1.8,0.4,3,1.1,3.7c0.4,0.5,1.1,0.8,2.1,0.9c1,0.2,2.5,0.3,4.7,0.3
		c1.6,0,2.8-0.1,3.6-0.2c0.8-0.2,1.3-0.4,1.7-0.8C94.5,19.6,94.6,19.1,94.7,18.4z M94.6,14.2c0-1.4-0.4-2.4-1.1-3
		c-0.5-0.4-1.2-0.6-2-0.8c-0.9-0.1-2.2-0.2-3.9-0.2c-1.5,0-2.6,0.1-3.4,0.2c-0.8,0.1-1.4,0.4-1.8,0.7c-0.7,0.6-1.1,1.6-1.2,3h13.4
		V14.2z"/>
	<path class="st0" d="M98.8,17.8h2.4c0,0.2,0,0.3,0,0.4c0,0.8,0.1,1.3,0.3,1.7c0.2,0.3,0.5,0.6,1,0.8c0.7,0.2,2.6,0.3,5.7,0.3
		c2,0,3.3,0,4.1-0.1s1.3-0.3,1.7-0.5c0.5-0.3,0.7-0.9,0.7-1.6c0-0.9-0.3-1.5-0.8-1.8s-1.5-0.5-3-0.5c-0.5,0-2.7,0-6.6-0.1
		c-1,0-1.8-0.1-2.5-0.2c-0.6-0.1-1.1-0.4-1.5-0.7c-0.8-0.6-1.2-1.6-1.2-3c0-1.5,0.5-2.6,1.4-3.3c0.5-0.4,1.3-0.6,2.5-0.8
		s2.8-0.2,5-0.2c2.4,0,4.2,0.1,5.4,0.4c1.2,0.3,2,0.7,2.5,1.4c0.3,0.3,0.4,0.7,0.5,1c0.1,0.4,0.1,1,0.1,1.8h-2.4
		c0-0.9-0.2-1.5-0.4-1.7c-0.3-0.3-0.9-0.5-1.8-0.7c-0.9-0.1-2.2-0.2-3.9-0.2c-3.1,0-5,0.2-5.7,0.7c-0.5,0.3-0.7,0.9-0.7,1.6
		c0,0.8,0.3,1.3,0.9,1.6s1.7,0.4,3.4,0.3c1.7,0,3.9,0,6.6,0.1c1.6,0.1,2.8,0.4,3.6,1.1c0.7,0.7,1.1,1.7,1.1,3.1
		c0,0.9-0.1,1.6-0.4,2.1s-0.7,1-1.2,1.3s-1.3,0.5-2.4,0.6s-2.8,0.2-4.9,0.2c-2.4,0-4.2-0.1-5.3-0.2c-1.2-0.1-2-0.4-2.5-0.8
		s-0.9-0.8-1.1-1.3s-0.3-1.2-0.3-2.2C98.8,18.4,98.8,18.2,98.8,17.8z"/>
	<path class="st0" d="M119.2,2h2.3v8.5h0.2c0.5-0.9,1.2-1.5,2.3-1.8c1-0.3,2.7-0.5,5.1-0.5c2,0,3.5,0.1,4.5,0.3s1.8,0.6,2.4,1.2
		c0.5,0.5,0.8,1.1,1,1.9c0.2,0.7,0.2,2,0.2,3.7v7.5h-2.3V16c0-1.5-0.1-2.5-0.2-3.1c-0.1-0.6-0.3-1.1-0.7-1.5c-0.4-0.5-1-0.8-1.8-1
		s-2-0.3-3.6-0.3c-1.8,0-3.1,0.1-4.1,0.4s-1.7,0.7-2.2,1.2c-0.4,0.4-0.6,0.9-0.7,1.4s-0.2,1.5-0.2,2.8v6.8h-2.3L119.2,2L119.2,2z"/>
	<path class="st0" d="M148.1,8.2c2.3,0,3.9,0.1,5,0.2c1.1,0.1,1.9,0.4,2.5,0.8c0.9,0.5,1.6,1.3,2,2.3s0.6,2.4,0.6,4.1
		c0,1.9-0.2,3.4-0.7,4.4c-0.4,0.8-0.8,1.4-1.4,1.8c-0.6,0.4-1.4,0.7-2.3,0.9c-0.9,0.2-2.5,0.3-4.7,0.3c-2,0-3.6-0.1-4.6-0.2
		s-1.9-0.4-2.5-0.7c-1-0.5-1.7-1.3-2.1-2.3c-0.4-1-0.6-2.4-0.6-4.2c0-2,0.3-3.6,0.9-4.6c0.6-1.1,1.5-1.8,2.5-2.2
		C143.7,8.4,145.5,8.2,148.1,8.2z M148.4,10.2c-1.5,0-2.7,0.1-3.4,0.2c-0.8,0.1-1.4,0.3-1.8,0.6c-0.5,0.3-0.9,0.9-1.2,1.6
		c-0.2,0.7-0.4,1.8-0.4,3.1c0,1.5,0.2,2.6,0.5,3.3c0.3,0.7,0.9,1.2,1.7,1.5c0.9,0.3,2.6,0.5,5.1,0.5c1.6,0,2.9-0.1,3.6-0.2
		c0.8-0.1,1.4-0.3,1.8-0.7c0.5-0.4,0.9-0.9,1.1-1.6c0.2-0.7,0.3-1.7,0.3-3c0-1.5-0.2-2.6-0.5-3.3c-0.4-0.8-1-1.3-1.9-1.6
		C152.4,10.3,150.8,10.2,148.4,10.2z"/>
	<path class="st0" d="M160.4,28V8.4h2.3v1.9h0.1c0.5-0.8,1.2-1.4,2.1-1.6c0.9-0.3,2.5-0.4,4.8-0.4c2,0,3.4,0.1,4.4,0.2
		c1,0.1,1.8,0.4,2.4,0.8c1,0.6,1.7,1.4,2,2.4c0.4,1,0.5,2.3,0.5,4c0,2.2-0.3,3.8-1,4.8c-0.7,1-1.6,1.7-2.7,2.1
		c-1.1,0.3-3.1,0.5-6,0.5c-2.1,0-3.6-0.1-4.5-0.4s-1.6-0.8-2.1-1.5h-0.1V28H160.4z M170.2,10.2c-1.8,0-3.2,0.1-4.1,0.2
		c-0.9,0.1-1.6,0.3-2,0.6c-0.5,0.4-0.9,0.9-1.2,1.6s-0.4,1.7-0.4,2.9c0,1.4,0.1,2.5,0.4,3.2c0.3,0.7,0.7,1.3,1.3,1.6
		c0.8,0.5,2.5,0.7,5.1,0.7c1.7,0,3-0.1,3.8-0.2c0.9-0.1,1.5-0.3,2-0.6c0.5-0.4,0.9-0.9,1.2-1.6c0.2-0.7,0.4-1.7,0.4-2.9
		c0-1.4-0.1-2.5-0.4-3.2c-0.3-0.7-0.7-1.2-1.3-1.6C174.2,10.4,172.6,10.2,170.2,10.2z"/>
</g>
</svg>
